<svg xmlns="http://www.w3.org/2000/svg" width="512" height="512" viewBox="0 0 512 512" version="1.1">
	<path d="M 233 0.981 C 171.942 7.085, 117.468 32.629, 75.049 75.049 C 36.063 114.034, 11.975 161.799, 2.792 218.326 C -0.294 237.319, -0.294 274.681, 2.792 293.674 C 11.975 350.201, 36.063 397.966, 75.049 436.951 C 114.034 475.937, 161.799 500.025, 218.326 509.208 C 237.319 512.294, 274.681 512.294, 293.674 509.208 C 350.201 500.025, 397.966 475.937, 436.951 436.951 C 469.784 404.119, 492.669 363.882, 503.970 319.120 C 507.504 305.122, 510.974 283.959, 510.989 276.309 C 510.995 273.454, 511.450 270.840, 512 270.500 C 512.595 270.132, 513 263.803, 513 254.882 C 513 245.137, 512.650 240.098, 512 240.500 C 511.382 240.882, 510.996 239.091, 510.989 235.809 C 510.974 228.054, 507.525 206.962, 503.970 192.880 C 492.669 148.118, 469.784 107.881, 436.951 75.049 C 398.080 36.178, 349.538 11.660, 294.183 2.939 C 279.748 0.664, 246.735 -0.392, 233 0.981 M 195.942 126.440 L 168.500 140.760 168.246 267.441 L 167.992 394.121 188.246 383.584 C 199.386 377.789, 211.759 371.349, 215.742 369.274 L 222.985 365.500 222.992 269.309 C 222.997 216.404, 223.338 172.934, 223.750 172.710 C 224.463 172.321, 299.526 214.126, 301.299 215.899 C 301.763 216.363, 288.836 223.653, 272.572 232.098 L 243 247.452 243 279.152 L 243 310.852 282.250 337.096 C 303.837 351.530, 333.762 371.615, 348.750 381.730 L 376 400.120 376 370.131 L 376 340.141 335.478 312.157 L 294.957 284.172 300.228 281.209 C 303.128 279.580, 318.203 271.779, 333.729 263.874 L 361.957 249.500 361.979 218.416 L 362 187.331 293.250 150.009 C 255.438 129.482, 224.249 112.559, 223.942 112.403 C 223.635 112.247, 211.035 118.563, 195.942 126.440 M 0.402 256 C 0.402 264.525, 0.556 268.012, 0.743 263.750 C 0.931 259.488, 0.931 252.512, 0.743 248.250 C 0.556 243.988, 0.402 247.475, 0.402 256" stroke="none" fill="black" fill-rule="evenodd"/>
</svg>